<svg xmlns="http://www.w3.org/2000/svg" width="24" height="16.8" viewBox="0 0 24 16.8"><defs><style>.a{fill:rgba(0,0,0,0.57);}</style></defs><path class="a" d="M11.6,17l6.228-3.6L11.6,9.8V17M25.472,7.6a12.406,12.406,0,0,1,.336,2.28c.084.96.12,1.788.12,2.508L26,13.4a23.841,23.841,0,0,1-.528,5.8A2.812,2.812,0,0,1,23.4,21.272a16.918,16.918,0,0,1-3.18.336c-1.56.084-2.988.12-4.308.12L14,21.8c-5.028,0-8.16-.192-9.4-.528A2.812,2.812,0,0,1,2.528,19.2a12.406,12.406,0,0,1-.336-2.28c-.084-.96-.12-1.788-.12-2.508L2,13.4a23.841,23.841,0,0,1,.528-5.8A2.812,2.812,0,0,1,4.6,5.528a16.918,16.918,0,0,1,3.18-.336c1.56-.084,2.988-.12,4.308-.12L14,5c5.028,0,8.16.192,9.4.528A2.812,2.812,0,0,1,25.472,7.6Z" transform="translate(-2 -5)"/></svg>