<svg xmlns="http://www.w3.org/2000/svg" xmlns:xlink="http://www.w3.org/1999/xlink" width="56.867" height="55.162" viewBox="0 0 56.867 55.162"><defs><style>.a{fill:rgba(0,0,0,0);}.b{fill:#fff;}.c{filter:url(#a);}</style><filter id="a" x="0" y="0" width="56.867" height="55.162" filterUnits="userSpaceOnUse"><feOffset input="SourceAlpha"/><feGaussianBlur stdDeviation="5" result="b"/><feFlood/><feComposite operator="in" in2="b"/><feComposite in="SourceGraphic"/></filter></defs><g transform="translate(12.933 11.9)"><path class="a" d="M0,0H31V31H0Z"/><g class="c" transform="matrix(1, 0, 0, 1, -12.93, -11.9)"><path class="b" d="M21.478,3a7.979,7.979,0,0,0-6.045,2.866A7.979,7.979,0,0,0,9.388,3,7.394,7.394,0,0,0,2,10.542c0,5.183,4.567,9.406,11.486,15.824l1.948,1.8,1.948-1.81c6.918-6.4,11.485-10.627,11.485-15.81A7.394,7.394,0,0,0,21.478,3ZM15.568,24.322l-.134.137-.134-.137C8.9,18.412,4.687,14.5,4.687,10.542a4.639,4.639,0,0,1,4.7-4.8,5.251,5.251,0,0,1,4.8,3.236H16.7a5.218,5.218,0,0,1,4.782-3.236,4.639,4.639,0,0,1,4.7,4.8C26.18,14.5,21.962,18.412,15.568,24.322Z" transform="translate(13 12)"/></g></g></svg>