<svg xmlns="http://www.w3.org/2000/svg" width="22.88" height="16" viewBox="0 0 22.88 16"><defs><style>.a{fill:#7d8d99;}</style></defs><path class="a" d="M5.16,15l-.624-.5C2.456,12.6,1,11.4,1,9.9A2.265,2.265,0,0,1,3.288,7.7a2.479,2.479,0,0,1,1.872.8,2.479,2.479,0,0,1,1.872-.8A2.2,2.2,0,0,1,9.32,9.9c0,1.5-1.456,2.7-3.536,4.6L5.16,15M15.56,4A4.081,4.081,0,0,0,11.4,8a4.081,4.081,0,0,0,4.16,4,4.081,4.081,0,0,0,4.16-4,4.081,4.081,0,0,0-4.16-4m0,6.1A2.143,2.143,0,0,1,13.376,8a2.186,2.186,0,0,1,4.368,0,2.143,2.143,0,0,1-2.184,2.1m0,2.9c-2.777,0-8.32,1.33-8.32,4v3H23.88V17c0-2.67-5.543-4-8.32-4M21.9,18.1H9.216V17c0-.64,3.224-2.1,6.344-2.1,3.089,0,6.344,1.46,6.344,2.1Z" transform="translate(-1 -4)"/></svg>