<svg xmlns="http://www.w3.org/2000/svg" width="16" height="13.002" viewBox="0 0 16 13.002"><defs><style>.a{fill:#fff;}</style></defs><path class="a" d="M17.54,5.53a6.553,6.553,0,0,1-1.881.528A3.288,3.288,0,0,0,17.1,4.237a6.609,6.609,0,0,1-2.08.8A3.231,3.231,0,0,0,12.6,4,3.277,3.277,0,0,0,9.333,7.281a3.41,3.41,0,0,0,.084.75A9.326,9.326,0,0,1,2.657,4.6,3.268,3.268,0,0,0,3.674,8.971a3.245,3.245,0,0,1-1.491-.382v.023a3.284,3.284,0,0,0,2.631,3.22,3.217,3.217,0,0,1-1.476.054A3.273,3.273,0,0,0,6.4,14.164,6.517,6.517,0,0,1,2.32,15.572a6.671,6.671,0,0,1-.78-.046A9.334,9.334,0,0,0,15.911,7.663c0-.145,0-.283-.008-.428A6.556,6.556,0,0,0,17.54,5.53Z" transform="translate(-1.54 -4)"/></svg>